<svg width="1061" height="282" viewBox="0 0 1061 282" fill="none" xmlns="http://www.w3.org/2000/svg">
<path d="M843.507 268L929.931 74.1H974.251L1060.95 268H1013.86L942.95 96.814H960.678L889.489 268H843.507ZM886.719 226.45L898.63 192.379H998.35L1010.54 226.45H886.719Z" fill="#585858"/>
<path d="M776.541 161.355H869.613V197.365H776.541V161.355ZM779.865 268H734.991V74.1H881.524V110.11H779.865V268Z" fill="#585858"/>
<path d="M628.171 271.324C612.844 271.324 598.624 268.831 585.513 263.845C572.586 258.859 561.322 251.842 551.719 242.793C542.301 233.744 534.914 223.126 529.559 210.938C524.388 198.75 521.803 185.454 521.803 171.05C521.803 156.646 524.388 143.35 529.559 131.162C534.914 118.974 542.393 108.356 551.996 99.307C561.599 90.2583 572.863 83.241 585.79 78.255C598.717 73.269 612.751 70.776 627.894 70.776C643.221 70.776 657.256 73.269 669.998 78.255C682.925 83.241 694.097 90.2583 703.515 99.307C713.118 108.356 720.597 118.974 725.952 131.162C731.307 143.165 733.985 156.461 733.985 171.05C733.985 185.454 731.307 198.842 725.952 211.215C720.597 223.403 713.118 234.021 703.515 243.07C694.097 251.934 682.925 258.859 669.998 263.845C657.256 268.831 643.314 271.324 628.171 271.324ZM627.894 233.098C636.573 233.098 644.514 231.621 651.716 228.666C659.103 225.711 665.566 221.464 671.106 215.924C676.646 210.384 680.893 203.828 683.848 196.257C686.987 188.686 688.557 180.283 688.557 171.05C688.557 161.817 686.987 153.414 683.848 145.843C680.893 138.272 676.646 131.716 671.106 126.176C665.751 120.636 659.38 116.389 651.993 113.434C644.606 110.479 636.573 109.002 627.894 109.002C619.215 109.002 611.182 110.479 603.795 113.434C596.593 116.389 590.222 120.636 584.682 126.176C579.142 131.716 574.802 138.272 571.663 145.843C568.708 153.414 567.231 161.817 567.231 171.05C567.231 180.099 568.708 188.501 571.663 196.257C574.802 203.828 579.05 210.384 584.405 215.924C589.945 221.464 596.408 225.711 603.795 228.666C611.182 231.621 619.215 233.098 627.894 233.098Z" fill="#585858"/>
<mask id="path-4-outside-1_2_121" maskUnits="userSpaceOnUse" x="317" y="60" width="233" height="222" fill="black">
<rect fill="white" x="317" y="60" width="233" height="222"/>
<path d="M434.171 271.324C418.844 271.324 404.624 268.831 391.513 263.845C378.586 258.859 367.322 251.842 357.719 242.793C348.301 233.744 340.914 223.126 335.559 210.938C330.388 198.75 327.803 185.454 327.803 171.05C327.803 156.646 330.388 143.35 335.559 131.162C340.914 118.974 348.393 108.356 357.996 99.307C367.599 90.2583 378.863 83.241 391.79 78.255C404.717 73.269 418.751 70.776 433.894 70.776C449.221 70.776 463.256 73.269 475.998 78.255C488.925 83.241 500.097 90.2583 509.515 99.307C519.118 108.356 526.597 118.974 531.952 131.162C537.307 143.165 539.985 156.461 539.985 171.05C539.985 185.454 537.307 198.842 531.952 211.215C526.597 223.403 519.118 234.021 509.515 243.07C500.097 251.934 488.925 258.859 475.998 263.845C463.256 268.831 449.314 271.324 434.171 271.324ZM433.894 233.098C442.573 233.098 450.514 231.621 457.716 228.666C465.103 225.711 471.566 221.464 477.106 215.924C482.646 210.384 486.893 203.828 489.848 196.257C492.987 188.686 494.557 180.283 494.557 171.05C494.557 161.817 492.987 153.414 489.848 145.843C486.893 138.272 482.646 131.716 477.106 126.176C471.751 120.636 465.38 116.389 457.993 113.434C450.606 110.479 442.573 109.002 433.894 109.002C425.215 109.002 417.182 110.479 409.795 113.434C402.593 116.389 396.222 120.636 390.682 126.176C385.142 131.716 380.802 138.272 377.663 145.843C374.708 153.414 373.231 161.817 373.231 171.05C373.231 180.099 374.708 188.501 377.663 196.257C380.802 203.828 385.05 210.384 390.405 215.924C395.945 221.464 402.408 225.711 409.795 228.666C417.182 231.621 425.215 233.098 433.894 233.098Z"/>
</mask>
<path d="M434.171 271.324C418.844 271.324 404.624 268.831 391.513 263.845C378.586 258.859 367.322 251.842 357.719 242.793C348.301 233.744 340.914 223.126 335.559 210.938C330.388 198.75 327.803 185.454 327.803 171.05C327.803 156.646 330.388 143.35 335.559 131.162C340.914 118.974 348.393 108.356 357.996 99.307C367.599 90.2583 378.863 83.241 391.79 78.255C404.717 73.269 418.751 70.776 433.894 70.776C449.221 70.776 463.256 73.269 475.998 78.255C488.925 83.241 500.097 90.2583 509.515 99.307C519.118 108.356 526.597 118.974 531.952 131.162C537.307 143.165 539.985 156.461 539.985 171.05C539.985 185.454 537.307 198.842 531.952 211.215C526.597 223.403 519.118 234.021 509.515 243.07C500.097 251.934 488.925 258.859 475.998 263.845C463.256 268.831 449.314 271.324 434.171 271.324ZM433.894 233.098C442.573 233.098 450.514 231.621 457.716 228.666C465.103 225.711 471.566 221.464 477.106 215.924C482.646 210.384 486.893 203.828 489.848 196.257C492.987 188.686 494.557 180.283 494.557 171.05C494.557 161.817 492.987 153.414 489.848 145.843C486.893 138.272 482.646 131.716 477.106 126.176C471.751 120.636 465.38 116.389 457.993 113.434C450.606 110.479 442.573 109.002 433.894 109.002C425.215 109.002 417.182 110.479 409.795 113.434C402.593 116.389 396.222 120.636 390.682 126.176C385.142 131.716 380.802 138.272 377.663 145.843C374.708 153.414 373.231 161.817 373.231 171.05C373.231 180.099 374.708 188.501 377.663 196.257C380.802 203.828 385.05 210.384 390.405 215.924C395.945 221.464 402.408 225.711 409.795 228.666C417.182 231.621 425.215 233.098 433.894 233.098Z" fill="#131933"/>
<path d="M391.513 263.845L387.914 273.175L387.936 273.184L387.959 273.192L391.513 263.845ZM357.719 242.793L350.791 250.004L350.826 250.038L350.861 250.071L357.719 242.793ZM335.559 210.938L326.353 214.843L326.378 214.902L326.404 214.961L335.559 210.938ZM335.559 131.162L326.404 127.139L326.378 127.198L326.353 127.257L335.559 131.162ZM391.79 78.255L388.191 68.925V68.925L391.79 78.255ZM475.998 78.255L472.354 87.5674L472.377 87.5763L472.399 87.585L475.998 78.255ZM509.515 99.307L502.587 106.518L502.622 106.552L502.657 106.585L509.515 99.307ZM531.952 131.162L522.797 135.185L522.808 135.211L522.82 135.236L531.952 131.162ZM531.952 211.215L541.107 215.238L541.118 215.213L541.129 215.187L531.952 211.215ZM509.515 243.07L516.369 250.352L516.373 250.348L509.515 243.07ZM475.998 263.845L472.399 254.515L472.377 254.524L472.354 254.533L475.998 263.845ZM457.716 228.666L454.002 219.381L453.961 219.398L453.92 219.414L457.716 228.666ZM477.106 215.924L470.035 208.853H470.035L477.106 215.924ZM489.848 196.257L480.611 192.427L480.57 192.524L480.532 192.622L489.848 196.257ZM489.848 145.843L480.532 149.478L480.57 149.576L480.611 149.673L489.848 145.843ZM477.106 126.176L469.916 133.126L469.975 133.187L470.035 133.247L477.106 126.176ZM457.993 113.434L454.279 122.719V122.719L457.993 113.434ZM409.795 113.434L406.081 104.149L406.04 104.166L405.999 104.182L409.795 113.434ZM390.682 126.176L397.753 133.247H397.753L390.682 126.176ZM377.663 145.843L368.426 142.013L368.385 142.11L368.347 142.208L377.663 145.843ZM377.663 196.257L368.318 199.817L368.37 199.953L368.426 200.087L377.663 196.257ZM390.405 215.924L383.215 222.874L383.274 222.935L383.334 222.995L390.405 215.924ZM409.795 228.666L406.081 237.951H406.081L409.795 228.666ZM434.171 271.324V261.324C419.946 261.324 406.943 259.014 395.067 254.498L391.513 263.845L387.959 273.192C402.306 278.648 417.742 281.324 434.171 281.324V271.324ZM391.513 263.845L395.112 254.515C383.333 249.972 373.19 243.631 364.577 235.515L357.719 242.793L350.861 250.071C361.454 260.052 373.84 267.746 387.914 273.175L391.513 263.845ZM357.719 242.793L364.647 235.582C356.192 227.458 349.553 217.929 344.714 206.915L335.559 210.938L326.404 214.961C332.275 228.323 340.41 240.031 350.791 250.004L357.719 242.793ZM335.559 210.938L344.765 207.033C340.163 196.185 337.803 184.231 337.803 171.05H327.803H317.803C317.803 186.677 320.614 201.315 326.353 214.843L335.559 210.938ZM327.803 171.05H337.803C337.803 157.869 340.163 145.915 344.765 135.067L335.559 131.162L326.353 127.257C320.614 140.785 317.803 155.423 317.803 171.05H327.803ZM335.559 131.162L344.714 135.185C349.535 124.214 356.237 114.705 364.854 106.585L357.996 99.307L351.138 92.0291C340.55 102.006 332.294 113.734 326.404 127.139L335.559 131.162ZM357.996 99.307L364.854 106.585C373.467 98.4691 383.61 92.1283 395.389 87.585L391.79 78.255L388.191 68.925C374.117 74.3536 361.731 82.0475 351.138 92.0291L357.996 99.307ZM391.79 78.255L395.389 87.585C407.065 83.0813 419.867 80.776 433.894 80.776V70.776V60.776C417.635 60.776 402.368 63.4567 388.191 68.925L391.79 78.255ZM433.894 70.776V80.776C448.124 80.776 460.904 83.0872 472.354 87.5674L475.998 78.255L479.642 68.9426C465.607 63.4508 450.319 60.776 433.894 60.776V70.776ZM475.998 78.255L472.399 87.585C484.163 92.1224 494.184 98.445 502.587 106.518L509.515 99.307L516.443 92.0959C506.01 82.0716 493.686 74.3596 479.597 68.925L475.998 78.255ZM509.515 99.307L502.657 106.585C511.274 114.705 517.976 124.214 522.797 135.185L531.952 131.162L541.107 127.139C535.217 113.734 526.961 102.006 516.373 92.0291L509.515 99.307ZM531.952 131.162L522.82 135.236C527.543 145.823 529.985 157.71 529.985 171.05H539.985H549.985C549.985 155.213 547.072 140.508 541.084 127.088L531.952 131.162ZM539.985 171.05H529.985C529.985 184.182 527.551 196.208 522.775 207.243L531.952 211.215L541.129 215.187C547.064 201.476 549.985 186.726 549.985 171.05H539.985ZM531.952 211.215L522.797 207.192C517.976 218.163 511.274 227.672 502.657 235.792L509.515 243.07L516.373 250.348C526.961 240.371 535.217 228.643 541.107 215.238L531.952 211.215ZM509.515 243.07L502.661 235.788C494.251 243.703 484.206 249.961 472.399 254.515L475.998 263.845L479.597 273.175C493.644 267.757 505.943 260.165 516.369 250.352L509.515 243.07ZM475.998 263.845L472.354 254.533C460.891 259.018 448.2 261.324 434.171 261.324V271.324V281.324C450.428 281.324 465.621 278.644 479.642 273.157L475.998 263.845ZM433.894 233.098V243.098C443.726 243.098 452.974 241.42 461.512 237.918L457.716 228.666L453.92 219.414C448.054 221.821 441.421 223.098 433.894 223.098V233.098ZM457.716 228.666L461.43 237.951C470.054 234.501 477.664 229.508 484.177 222.995L477.106 215.924L470.035 208.853C465.468 213.42 460.151 216.922 454.002 219.381L457.716 228.666ZM477.106 215.924L484.177 222.995C490.731 216.441 495.726 208.703 499.164 199.892L489.848 196.257L480.532 192.622C478.061 198.954 474.561 204.327 470.035 208.853L477.106 215.924ZM489.848 196.257L499.085 200.087C502.788 191.157 504.557 181.432 504.557 171.05H494.557H484.557C484.557 179.135 483.187 186.214 480.611 192.427L489.848 196.257ZM494.557 171.05H504.557C504.557 160.668 502.788 150.943 499.085 142.013L489.848 145.843L480.611 149.673C483.187 155.886 484.557 162.965 484.557 171.05H494.557ZM489.848 145.843L499.164 142.208C495.726 133.397 490.731 125.659 484.177 119.105L477.106 126.176L470.035 133.247C474.561 137.773 478.061 143.146 480.532 149.478L489.848 145.843ZM477.106 126.176L484.296 119.226C477.927 112.638 470.36 107.611 461.707 104.149L457.993 113.434L454.279 122.719C460.399 125.167 465.574 128.634 469.916 133.126L477.106 126.176ZM457.993 113.434L461.707 104.149C453.036 100.681 443.729 99.002 433.894 99.002V109.002V119.002C441.417 119.002 448.177 120.278 454.279 122.719L457.993 113.434ZM433.894 109.002V99.002C424.059 99.002 414.752 100.681 406.081 104.149L409.795 113.434L413.509 122.719C419.611 120.278 426.371 119.002 433.894 119.002V109.002ZM409.795 113.434L405.999 104.182C397.564 107.643 390.081 112.634 383.611 119.105L390.682 126.176L397.753 133.247C402.363 128.637 407.622 125.134 413.591 122.686L409.795 113.434ZM390.682 126.176L383.611 119.105C377.101 125.615 372.044 133.286 368.426 142.013L377.663 145.843L386.9 149.673C389.561 143.257 393.183 137.817 397.753 133.247L390.682 126.176ZM377.663 145.843L368.347 142.208C364.883 151.084 363.231 160.741 363.231 171.05H373.231H383.231C383.231 162.893 384.534 155.744 386.979 149.478L377.663 145.843ZM373.231 171.05H363.231C363.231 181.205 364.893 190.826 368.318 199.817L377.663 196.257L387.008 192.697C384.524 186.176 383.231 178.992 383.231 171.05H373.231ZM377.663 196.257L368.426 200.087C372.015 208.743 376.933 216.376 383.215 222.874L390.405 215.924L397.595 208.974C393.166 204.392 389.59 198.914 386.9 192.427L377.663 196.257ZM390.405 215.924L383.334 222.995C389.847 229.508 397.457 234.501 406.081 237.951L409.795 228.666L413.509 219.381C407.36 216.922 402.043 213.42 397.476 208.853L390.405 215.924ZM409.795 228.666L406.081 237.951C414.752 241.419 424.059 243.098 433.894 243.098V233.098V223.098C426.371 223.098 419.611 221.822 413.509 219.381L409.795 228.666Z" fill="white" fill-opacity="0.96" mask="url(#path-4-outside-1_2_121)"/>
<mask id="path-6-outside-2_2_121" maskUnits="userSpaceOnUse" x="172" y="64" width="191" height="214" fill="black">
<rect fill="white" x="172" y="64" width="191" height="214"/>
<path d="M182.991 268V74.1H266.922C284.281 74.1 299.239 76.9623 311.796 82.687C324.353 88.227 334.048 96.26 340.881 106.786C347.714 117.312 351.13 129.869 351.13 144.458C351.13 158.862 347.714 171.327 340.881 181.853C334.048 192.194 324.353 200.135 311.796 205.675C299.239 211.215 284.281 213.985 266.922 213.985H207.921L227.865 194.318V268H182.991ZM306.256 268L257.781 197.642H305.702L354.731 268H306.256ZM227.865 199.304L207.921 178.252H264.429C278.279 178.252 288.62 175.297 295.453 169.388C302.286 163.294 305.702 154.984 305.702 144.458C305.702 133.747 302.286 125.437 295.453 119.528C288.62 113.619 278.279 110.664 264.429 110.664H207.921L227.865 89.335V199.304Z"/>
</mask>
<path d="M182.991 268V74.1H266.922C284.281 74.1 299.239 76.9623 311.796 82.687C324.353 88.227 334.048 96.26 340.881 106.786C347.714 117.312 351.13 129.869 351.13 144.458C351.13 158.862 347.714 171.327 340.881 181.853C334.048 192.194 324.353 200.135 311.796 205.675C299.239 211.215 284.281 213.985 266.922 213.985H207.921L227.865 194.318V268H182.991ZM306.256 268L257.781 197.642H305.702L354.731 268H306.256ZM227.865 199.304L207.921 178.252H264.429C278.279 178.252 288.62 175.297 295.453 169.388C302.286 163.294 305.702 154.984 305.702 144.458C305.702 133.747 302.286 125.437 295.453 119.528C288.62 113.619 278.279 110.664 264.429 110.664H207.921L227.865 89.335V199.304Z" fill="#131933"/>
<path d="M182.991 268H172.991V278H182.991V268ZM182.991 74.1V64.1H172.991V74.1H182.991ZM311.796 82.687L307.648 91.7861L307.704 91.8115L307.76 91.8362L311.796 82.687ZM340.881 106.786L332.493 112.231L332.493 112.231L340.881 106.786ZM340.881 181.853L349.224 187.366L349.247 187.332L349.269 187.298L340.881 181.853ZM311.796 205.675L315.832 214.824V214.824L311.796 205.675ZM207.921 213.985L200.9 206.865L207.921 223.985V213.985ZM227.865 194.318H237.865L220.844 187.198L227.865 194.318ZM227.865 268V278H237.865V268H227.865ZM306.256 268L298.021 273.674L301.002 278H306.256V268ZM257.781 197.642V187.642L249.546 203.316L257.781 197.642ZM305.702 197.642L313.906 191.925L310.922 187.642H305.702V197.642ZM354.731 268V278L362.935 262.283L354.731 268ZM227.865 199.304L220.605 206.181L237.865 199.304H227.865ZM207.921 178.252V168.252L200.661 185.129L207.921 178.252ZM295.453 169.388L301.995 176.952L302.052 176.902L302.109 176.851L295.453 169.388ZM207.921 110.664L200.617 103.834L207.921 120.664V110.664ZM227.865 89.335H237.865L220.561 82.5051L227.865 89.335ZM182.991 268H192.991V74.1H182.991H172.991V268H182.991ZM182.991 74.1V84.1H266.922V74.1V64.1H182.991V74.1ZM266.922 74.1V84.1C283.207 84.1 296.683 86.7874 307.648 91.7861L311.796 82.687L315.944 73.5879C301.794 67.1372 285.354 64.1 266.922 64.1V74.1ZM311.796 82.687L307.76 91.8362C318.711 96.6675 326.819 103.489 332.493 112.231L340.881 106.786L349.269 101.341C341.278 89.0312 329.996 79.7865 315.832 73.5378L311.796 82.687ZM340.881 106.786L332.493 112.231C338.112 120.886 341.13 131.481 341.13 144.458H351.13H361.13C361.13 128.258 357.316 113.738 349.269 101.341L340.881 106.786ZM351.13 144.458H341.13C341.13 157.222 338.125 167.733 332.493 176.408L340.881 181.853L349.269 187.298C357.303 174.921 361.13 160.502 361.13 144.458H351.13ZM340.881 181.853L332.538 176.34C326.874 184.913 318.757 191.674 307.76 196.526L311.796 205.675L315.832 214.824C329.949 208.596 341.223 199.476 349.224 187.366L340.881 181.853ZM311.796 205.675L307.76 196.526C296.763 201.377 283.246 203.985 266.922 203.985V213.985V223.985C285.315 223.985 301.714 221.053 315.832 214.824L311.796 205.675ZM266.922 213.985V203.985H207.921V213.985V223.985H266.922V213.985ZM207.921 213.985L214.942 221.105L234.886 201.438L227.865 194.318L220.844 187.198L200.9 206.865L207.921 213.985ZM227.865 194.318H217.865V268H227.865H237.865V194.318H227.865ZM227.865 268V258H182.991V268V278H227.865V268ZM306.256 268L314.491 262.326L266.016 191.968L257.781 197.642L249.546 203.316L298.021 273.674L306.256 268ZM257.781 197.642V207.642H305.702V197.642V187.642H257.781V197.642ZM305.702 197.642L297.498 203.359L346.527 273.717L354.731 268L362.935 262.283L313.906 191.925L305.702 197.642ZM354.731 268V258H306.256V268V278H354.731V268ZM227.865 199.304L235.125 192.427L215.181 171.375L207.921 178.252L200.661 185.129L220.605 206.181L227.865 199.304ZM207.921 178.252V188.252H264.429V178.252V168.252H207.921V178.252ZM264.429 178.252V188.252C279.453 188.252 292.592 185.083 301.995 176.952L295.453 169.388L288.911 161.824C284.649 165.511 277.105 168.252 264.429 168.252V178.252ZM295.453 169.388L302.109 176.851C311.397 168.567 315.702 157.363 315.702 144.458H305.702H295.702C295.702 152.605 293.174 158.021 288.797 161.925L295.453 169.388ZM305.702 144.458H315.702C315.702 131.437 311.436 120.13 301.995 111.964L295.453 119.528L288.911 127.092C293.136 130.745 295.702 136.058 295.702 144.458H305.702ZM295.453 119.528L301.995 111.964C292.592 103.833 279.453 100.664 264.429 100.664V110.664V120.664C277.105 120.664 284.649 123.405 288.911 127.092L295.453 119.528ZM264.429 110.664V100.664H207.921V110.664V120.664H264.429V110.664ZM207.921 110.664L215.225 117.494L235.169 96.1649L227.865 89.335L220.561 82.5051L200.617 103.834L207.921 110.664ZM227.865 89.335H217.865V199.304H227.865H237.865V89.335H227.865Z" fill="white" fill-opacity="0.96" mask="url(#path-6-outside-2_2_121)"/>
<mask id="path-8-outside-3_2_121" maskUnits="userSpaceOnUse" x="12" y="64" width="190" height="214" fill="black">
<rect fill="white" x="12" y="64" width="190" height="214"/>
<path d="M22.991 268V74.1H106.922C124.281 74.1 139.239 76.9623 151.796 82.687C164.353 88.227 174.048 96.26 180.881 106.786C187.714 117.312 191.13 129.869 191.13 144.458C191.13 158.862 187.714 171.327 180.881 181.853C174.048 192.379 164.353 200.504 151.796 206.229C139.239 211.769 124.281 214.539 106.922 214.539H47.921L67.865 194.318V268H22.991ZM67.865 199.304L47.921 177.975H104.429C118.279 177.975 128.62 175.02 135.453 169.111C142.286 163.202 145.702 154.984 145.702 144.458C145.702 133.747 142.286 125.437 135.453 119.528C128.62 113.619 118.279 110.664 104.429 110.664H47.921L67.865 89.335V199.304Z"/>
</mask>
<path d="M22.991 268V74.1H106.922C124.281 74.1 139.239 76.9623 151.796 82.687C164.353 88.227 174.048 96.26 180.881 106.786C187.714 117.312 191.13 129.869 191.13 144.458C191.13 158.862 187.714 171.327 180.881 181.853C174.048 192.379 164.353 200.504 151.796 206.229C139.239 211.769 124.281 214.539 106.922 214.539H47.921L67.865 194.318V268H22.991ZM67.865 199.304L47.921 177.975H104.429C118.279 177.975 128.62 175.02 135.453 169.111C142.286 163.202 145.702 154.984 145.702 144.458C145.702 133.747 142.286 125.437 135.453 119.528C128.62 113.619 118.279 110.664 104.429 110.664H47.921L67.865 89.335V199.304Z" fill="#131933"/>
<path d="M22.991 268H12.991V278H22.991V268ZM22.991 74.1V64.1H12.991V74.1H22.991ZM151.796 82.687L147.648 91.7861L147.704 91.8115L147.76 91.8362L151.796 82.687ZM180.881 106.786L172.493 112.231L172.493 112.231L180.881 106.786ZM151.796 206.229L155.832 215.378L155.888 215.353L155.944 215.328L151.796 206.229ZM47.921 214.539L40.8013 207.517L47.921 224.539V214.539ZM67.865 194.318H77.865L60.7453 187.296L67.865 194.318ZM67.865 268V278H77.865V268H67.865ZM67.865 199.304L60.5608 206.134L77.865 199.304H67.865ZM47.921 177.975V167.975L40.6168 184.805L47.921 177.975ZM47.921 110.664L40.6168 103.834L47.921 120.664V110.664ZM67.865 89.335H77.865L60.5608 82.5051L67.865 89.335ZM22.991 268H32.991V74.1H22.991H12.991V268H22.991ZM22.991 74.1V84.1H106.922V74.1V64.1H22.991V74.1ZM106.922 74.1V84.1C123.207 84.1 136.683 86.7874 147.648 91.7861L151.796 82.687L155.944 73.5879C141.794 67.1372 125.354 64.1 106.922 64.1V74.1ZM151.796 82.687L147.76 91.8362C158.711 96.6675 166.819 103.489 172.493 112.231L180.881 106.786L189.269 101.341C181.278 89.0312 169.996 79.7865 155.832 73.5378L151.796 82.687ZM180.881 106.786L172.493 112.231C178.112 120.886 181.13 131.481 181.13 144.458H191.13H201.13C201.13 128.258 197.316 113.738 189.269 101.341L180.881 106.786ZM191.13 144.458H181.13C181.13 157.222 178.125 167.733 172.493 176.408L180.881 181.853L189.269 187.298C197.303 174.921 201.13 160.502 201.13 144.458H191.13ZM180.881 181.853L172.493 176.408C166.799 185.18 158.652 192.113 147.648 197.13L151.796 206.229L155.944 215.328C170.055 208.895 181.297 199.578 189.269 187.298L180.881 181.853ZM151.796 206.229L147.76 197.08C136.763 201.931 123.246 204.539 106.922 204.539V214.539V224.539C125.315 224.539 141.714 221.607 155.832 215.378L151.796 206.229ZM106.922 214.539V204.539H47.921V214.539V224.539H106.922V214.539ZM47.921 214.539L55.0407 221.561L74.9847 201.34L67.865 194.318L60.7453 187.296L40.8013 207.517L47.921 214.539ZM67.865 194.318H57.865V268H67.865H77.865V194.318H67.865ZM67.865 268V258H22.991V268V278H67.865V268ZM67.865 199.304L75.1692 192.474L55.2252 171.145L47.921 177.975L40.6168 184.805L60.5608 206.134L67.865 199.304ZM47.921 177.975V187.975H104.429V177.975V167.975H47.921V177.975ZM104.429 177.975V187.975C119.453 187.975 132.592 184.806 141.995 176.675L135.453 169.111L128.911 161.547C124.649 165.234 117.105 167.975 104.429 167.975V177.975ZM135.453 169.111L141.995 176.675C151.395 168.544 155.702 157.357 155.702 144.458H145.702H135.702C135.702 152.611 133.176 157.859 128.911 161.547L135.453 169.111ZM145.702 144.458H155.702C155.702 131.437 151.436 120.13 141.995 111.964L135.453 119.528L128.911 127.092C133.136 130.745 135.702 136.058 135.702 144.458H145.702ZM135.453 119.528L141.995 111.964C132.592 103.833 119.453 100.664 104.429 100.664V110.664V120.664C117.105 120.664 124.649 123.405 128.911 127.092L135.453 119.528ZM104.429 110.664V100.664H47.921V110.664V120.664H104.429V110.664ZM47.921 110.664L55.2252 117.494L75.1692 96.1649L67.865 89.335L60.5608 82.5051L40.6168 103.834L47.921 110.664ZM67.865 89.335H57.865V199.304H67.865H77.865V89.335H67.865Z" fill="white" fill-opacity="0.96" mask="url(#path-8-outside-3_2_121)"/>
<circle cx="494" cy="170" r="26" fill="white" fill-opacity="0.96"/>
<circle cx="569" cy="170" r="26" fill="white" fill-opacity="0.96"/>
<rect x="437" y="167" width="190" height="6" fill="#474546"/>
<rect x="434.5" y="164.5" width="195" height="11" stroke="white" stroke-opacity="0.96" stroke-width="5"/>
<circle cx="437" cy="170" r="18" fill="#474546"/>
<circle cx="569" cy="170" r="18" fill="#474546"/>
<circle cx="568.5" cy="169.5" r="10.5" fill="white" fill-opacity="0.96"/>
<circle cx="494" cy="170" r="18" fill="#474546"/>
<circle cx="493.5" cy="169.5" r="10.5" fill="white" fill-opacity="0.96"/>
<circle cx="627" cy="171" r="18" fill="#474546"/>
</svg>
