<svg width="291" height="77" viewBox="0 0 291 77" fill="none" xmlns="http://www.w3.org/2000/svg">
<path d="M231.348 73.1774L255.052 20.233H267.207L290.986 73.1774H278.071L258.622 26.4351H263.485L243.96 73.1774H231.348ZM243.2 61.8321L246.467 52.5291H273.817L277.16 61.8321H243.2Z" fill="#585858"/>
<path d="M212.982 44.058H238.508V53.8905H212.982V44.058ZM213.893 73.1774H201.586V20.233H241.775V30.0656H213.893V73.1774Z" fill="#585858"/>
<path d="M172.288 74.0849C168.084 74.0849 164.184 73.4042 160.588 72.0427C157.043 70.6813 153.954 68.7653 151.32 66.2945C148.737 63.8237 146.711 60.9244 145.242 57.5965C143.824 54.2686 143.115 50.6381 143.115 46.7051C143.115 42.7721 143.824 39.1416 145.242 35.8137C146.711 32.4858 148.762 29.5865 151.396 27.1157C154.029 24.645 157.119 22.7289 160.664 21.3675C164.21 20.006 168.059 19.3253 172.212 19.3253C176.416 19.3253 180.265 20.006 183.76 21.3675C187.306 22.7289 190.37 24.645 192.953 27.1157C195.587 29.5865 197.638 32.4858 199.107 35.8137C200.575 39.0911 201.31 42.7216 201.31 46.7051C201.31 50.6381 200.575 54.2937 199.107 57.6721C197.638 61.0001 195.587 63.8993 192.953 66.3701C190.37 68.7904 187.306 70.6813 183.76 72.0427C180.265 73.4042 176.441 74.0849 172.288 74.0849ZM172.212 63.6473C174.593 63.6473 176.771 63.244 178.746 62.4371C180.772 61.6303 182.544 60.4706 184.064 58.9579C185.583 57.4452 186.748 55.6551 187.559 53.5879C188.42 51.5206 188.85 49.2262 188.85 46.7051C188.85 44.184 188.42 41.8896 187.559 39.8223C186.748 37.7551 185.583 35.965 184.064 34.4523C182.595 32.9396 180.848 31.7799 178.822 30.9731C176.796 30.1662 174.593 29.7629 172.212 29.7629C169.832 29.7629 167.629 30.1662 165.603 30.9731C163.627 31.7799 161.88 32.9396 160.36 34.4523C158.841 35.965 157.651 37.7551 156.79 39.8223C155.979 41.8896 155.574 44.184 155.574 46.7051C155.574 49.1759 155.979 51.4701 156.79 53.5879C157.651 55.6551 158.816 57.4452 160.285 58.9579C161.804 60.4706 163.577 61.6303 165.603 62.4371C167.629 63.244 169.832 63.6473 172.212 63.6473Z" fill="#585858"/>
<path d="M119.08 74.0849C114.876 74.0849 110.976 73.4042 107.38 72.0427C103.835 70.6813 100.745 68.7653 98.1114 66.2945C95.5284 63.8237 93.5023 60.9244 92.0336 57.5965C90.6154 54.2686 89.9064 50.6381 89.9064 46.7051C89.9064 42.7721 90.6154 39.1416 92.0336 35.8137C93.5023 32.4858 95.5536 29.5865 98.1874 27.1157C100.821 24.645 103.911 22.7289 107.456 21.3675C111.002 20.006 114.851 19.3253 119.004 19.3253C123.208 19.3253 127.057 20.006 130.552 21.3675C134.097 22.7289 137.161 24.645 139.744 27.1157C142.378 29.5865 144.43 32.4858 145.898 35.8137C147.367 39.0911 148.101 42.7216 148.101 46.7051C148.101 50.6381 147.367 54.2937 145.898 57.6721C144.43 61.0001 142.378 63.8993 139.744 66.3701C137.161 68.7904 134.097 70.6813 130.552 72.0427C127.057 73.4042 123.233 74.0849 119.08 74.0849ZM119.004 63.6473C121.384 63.6473 123.562 63.244 125.538 62.4371C127.564 61.6303 129.336 60.4706 130.856 58.9579C132.375 57.4452 133.54 55.6551 134.35 53.5879C135.211 51.5206 135.642 49.2262 135.642 46.7051C135.642 44.184 135.211 41.8896 134.35 39.8223C133.54 37.7551 132.375 35.965 130.856 34.4523C129.387 32.9396 127.64 31.7799 125.614 30.9731C123.588 30.1662 121.384 29.7629 119.004 29.7629C116.624 29.7629 114.42 30.1662 112.394 30.9731C110.419 31.7799 108.672 32.9396 107.152 34.4523C105.633 35.965 104.442 37.7551 103.581 39.8223C102.771 41.8896 102.366 44.184 102.366 46.7051C102.366 49.1759 102.771 51.4701 103.581 53.5879C104.442 55.6551 105.607 57.4452 107.076 58.9579C108.596 60.4706 110.368 61.6303 112.394 62.4371C114.42 63.244 116.624 63.6473 119.004 63.6473Z" fill="#131933"/>
<mask id="mask0_3_406" style="mask-type:luminance" maskUnits="userSpaceOnUse" x="86" y="16" width="65" height="61">
<path d="M150.848 16.3829H86.9435V77H150.848V16.3829Z" fill="white"/>
<path d="M119.08 74.0849C114.876 74.0849 110.976 73.4042 107.38 72.0427C103.835 70.6813 100.745 68.7653 98.1114 66.2945C95.5284 63.8237 93.5023 60.9244 92.0336 57.5965C90.6154 54.2686 89.9064 50.6381 89.9064 46.7051C89.9064 42.7721 90.6154 39.1416 92.0336 35.8137C93.5023 32.4858 95.5536 29.5865 98.1874 27.1157C100.821 24.645 103.911 22.7289 107.456 21.3675C111.002 20.006 114.851 19.3253 119.004 19.3253C123.208 19.3253 127.057 20.006 130.552 21.3675C134.097 22.7289 137.161 24.645 139.744 27.1157C142.378 29.5865 144.43 32.4858 145.898 35.8137C147.367 39.0911 148.101 42.7216 148.101 46.7051C148.101 50.6381 147.367 54.2937 145.898 57.6721C144.43 61.0001 142.378 63.8993 139.744 66.3701C137.161 68.7904 134.097 70.6813 130.552 72.0427C127.057 73.4042 123.233 74.0849 119.08 74.0849ZM119.004 63.6473C121.384 63.6473 123.562 63.244 125.538 62.4371C127.564 61.6303 129.336 60.4706 130.856 58.9579C132.375 57.4452 133.54 55.6551 134.35 53.5879C135.211 51.5206 135.642 49.2262 135.642 46.7051C135.642 44.184 135.211 41.8896 134.35 39.8223C133.54 37.7551 132.375 35.965 130.856 34.4523C129.387 32.9396 127.64 31.7799 125.614 30.9731C123.588 30.1662 121.384 29.7629 119.004 29.7629C116.624 29.7629 114.42 30.1662 112.394 30.9731C110.419 31.7799 108.672 32.9396 107.152 34.4523C105.633 35.965 104.442 37.7551 103.581 39.8223C102.771 41.8896 102.366 44.184 102.366 46.7051C102.366 49.1759 102.771 51.4701 103.581 53.5879C104.442 55.6551 105.607 57.4452 107.076 58.9579C108.596 60.4706 110.368 61.6303 112.394 62.4371C114.42 63.244 116.624 63.6473 119.004 63.6473Z" fill="black"/>
</mask>
<g mask="url(#mask0_3_406)">
<path d="M107.38 72.0428L106.393 74.5903L106.399 74.5928L106.405 74.595L107.38 72.0428ZM98.1114 66.2945L96.2113 68.2635L96.2209 68.2728L96.2305 68.2818L98.1114 66.2945ZM92.0336 57.5965L89.5087 58.6628L89.5155 58.6789L89.5227 58.695L92.0336 57.5965ZM92.0336 35.8137L89.5227 34.7152L89.5155 34.7314L89.5087 34.7475L92.0336 35.8137ZM130.552 21.3675L129.552 23.9102L129.559 23.9127L129.565 23.915L130.552 21.3675ZM139.744 27.1157L137.844 29.0847L137.854 29.094L137.864 29.103L139.744 27.1157ZM145.898 35.8137L143.387 36.9122L143.39 36.9193L143.394 36.9261L145.898 35.8137ZM145.898 57.6722L148.409 58.7706L148.412 58.7638L148.415 58.7567L145.898 57.6722ZM139.744 66.3702L141.624 68.3585L141.625 68.3574L139.744 66.3702ZM130.552 72.0428L129.565 69.4952L129.559 69.4977L129.552 69.5001L130.552 72.0428ZM125.538 62.4372L124.519 59.9019L124.508 59.9065L124.496 59.9109L125.538 62.4372ZM134.35 53.5879L131.817 52.5421L131.806 52.5686L131.795 52.5954L134.35 53.5879ZM134.35 39.8224L131.795 40.8149L131.806 40.8417L131.817 40.8681L134.35 39.8224ZM130.856 34.4523L128.884 36.35L128.9 36.3666L128.916 36.383L130.856 34.4523ZM112.394 30.9731L111.376 28.4378L111.364 28.4425L111.353 28.4468L112.394 30.9731ZM103.581 39.8224L101.048 38.7766L101.037 38.8031L101.026 38.8298L103.581 39.8224ZM103.581 53.5879L101.018 54.5599L101.033 54.5971L101.048 54.6337L103.581 53.5879ZM107.076 58.958L105.104 60.8556L105.12 60.8723L105.137 60.8887L107.076 58.958ZM119.08 74.0849V71.3544C115.178 71.3544 111.612 70.7237 108.355 69.4906L107.38 72.0428L106.405 74.595C110.34 76.0847 114.574 76.8154 119.08 76.8154V74.0849ZM107.38 72.0428L108.367 69.4952C105.137 68.2548 102.355 66.5233 99.9924 64.3073L98.1114 66.2945L96.2305 68.2818C99.1358 71.0071 102.533 73.1079 106.393 74.5903L107.38 72.0428ZM98.1114 66.2945L100.012 64.3256C97.6926 62.1073 95.8717 59.5054 94.5446 56.498L92.0336 57.5965L89.5227 58.695C91.1329 62.3435 93.3641 65.5404 96.2113 68.2635L98.1114 66.2945ZM92.0336 57.5965L94.5585 56.5303C93.2964 53.5682 92.6491 50.3042 92.6491 46.7051H89.9064H87.1637C87.1637 50.9721 87.9347 54.969 89.5087 58.6628L92.0336 57.5965ZM89.9064 46.7051H92.6491C92.6491 43.1061 93.2964 39.842 94.5585 36.88L92.0336 35.8137L89.5087 34.7475C87.9347 38.4413 87.1637 42.4382 87.1637 46.7051H89.9064ZM92.0336 35.8137L94.5446 36.9122C95.8668 33.9166 97.705 31.3201 100.068 29.103L98.1874 27.1157L96.3065 25.1285C93.4025 27.8527 91.1381 31.055 89.5227 34.7152L92.0336 35.8137ZM98.1874 27.1157L100.068 29.103C102.431 26.8869 105.213 25.1556 108.443 23.915L107.456 21.3675L106.469 18.8199C102.609 20.3022 99.2118 22.403 96.3065 25.1285L98.1874 27.1157ZM107.456 21.3675L108.443 23.915C111.646 22.6853 115.157 22.0558 119.004 22.0558V19.3253V16.5948C114.545 16.5948 110.357 17.3268 106.469 18.8199L107.456 21.3675ZM119.004 19.3253V22.0558C122.907 22.0558 126.412 22.6869 129.552 23.9102L130.552 21.3675L131.551 18.8247C127.702 17.3252 123.509 16.5948 119.004 16.5948V19.3253ZM130.552 21.3675L129.565 23.915C132.791 25.154 135.54 26.8804 137.844 29.0847L139.744 27.1157L141.645 25.1467C138.783 22.4096 135.403 20.3038 131.539 18.8199L130.552 21.3675ZM139.744 27.1157L137.864 29.103C140.227 31.3201 142.065 33.9166 143.387 36.9122L145.898 35.8137L148.409 34.7152C146.794 31.055 144.529 27.8527 141.625 25.1285L139.744 27.1157ZM145.898 35.8137L143.394 36.9261C144.689 39.8169 145.359 43.0626 145.359 46.7051H148.101H150.844C150.844 42.3808 150.045 38.3656 148.403 34.7013L145.898 35.8137ZM148.101 46.7051H145.359C145.359 50.2908 144.691 53.5745 143.381 56.5876L145.898 57.6722L148.415 58.7567C150.043 55.0129 150.844 50.9855 150.844 46.7051H148.101ZM145.898 57.6722L143.387 56.5737C142.065 59.5693 140.227 62.1657 137.864 64.3829L139.744 66.3702L141.625 68.3574C144.529 65.6332 146.794 62.4309 148.409 58.7706L145.898 57.6722ZM139.744 66.3702L137.865 64.3818C135.558 66.543 132.803 68.2517 129.565 69.4952L130.552 72.0428L131.539 74.5903C135.392 73.1109 138.765 71.0379 141.624 68.3585L139.744 66.3702ZM130.552 72.0428L129.552 69.5001C126.408 70.7248 122.928 71.3544 119.08 71.3544V74.0849V76.8154C123.539 76.8154 127.706 76.0836 131.551 74.5854L130.552 72.0428ZM119.004 63.6473V66.3778C121.701 66.3778 124.237 65.9196 126.579 64.9634L125.538 62.4372L124.496 59.9109C122.888 60.5681 121.068 60.9168 119.004 60.9168V63.6473ZM125.538 62.4372L126.556 64.9724C128.921 64.0304 131.009 62.6671 132.795 60.8887L130.856 58.958L128.916 57.0272C127.664 58.2742 126.205 59.2305 124.519 59.9019L125.538 62.4372ZM130.856 58.958L132.795 60.8887C134.593 59.0991 135.963 56.9863 136.905 54.5804L134.35 53.5879L131.795 52.5954C131.118 54.3243 130.158 55.7914 128.916 57.0272L130.856 58.958ZM134.35 53.5879L136.884 54.6337C137.899 52.1953 138.385 49.5399 138.385 46.7051H135.642H132.899C132.899 48.9127 132.523 50.8457 131.817 52.5421L134.35 53.5879ZM135.642 46.7051H138.385C138.385 43.8703 137.899 41.2149 136.884 38.7766L134.35 39.8224L131.817 40.8681C132.523 42.5646 132.899 44.4975 132.899 46.7051H135.642ZM134.35 39.8224L136.905 38.8298C135.963 36.424 134.593 34.3111 132.795 32.5216L130.856 34.4523L128.916 36.383C130.158 37.6189 131.118 39.0859 131.795 40.8149L134.35 39.8224ZM130.856 34.4523L132.828 32.5546C131.081 30.7557 129.005 29.3831 126.632 28.4378L125.614 30.9731L124.595 33.5084C126.273 34.1768 127.693 35.1235 128.884 36.35L130.856 34.4523ZM125.614 30.9731L126.632 28.4378C124.254 27.4909 121.701 27.0324 119.004 27.0324V29.7629V32.4934C121.067 32.4934 122.921 32.8418 124.595 33.5084L125.614 30.9731ZM119.004 29.7629V27.0324C116.306 27.0324 113.754 27.4909 111.376 28.4378L112.394 30.9731L113.413 33.5084C115.087 32.8418 116.941 32.4934 119.004 32.4934V29.7629ZM112.394 30.9731L111.353 28.4468C109.04 29.3919 106.987 30.7547 105.213 32.5216L107.152 34.4523L109.092 36.383C110.356 35.1243 111.798 34.1678 113.435 33.4994L112.394 30.9731ZM107.152 34.4523L105.213 32.5216C103.427 34.2991 102.04 36.3937 101.048 38.7766L103.581 39.8224L106.115 40.8681C106.845 39.1163 107.838 37.6309 109.092 36.383L107.152 34.4523ZM103.581 39.8224L101.026 38.8298C100.076 41.2534 99.6232 43.8903 99.6232 46.7051H102.366H105.109C105.109 44.4779 105.466 42.5258 106.137 40.8149L103.581 39.8224ZM102.366 46.7051H99.6232C99.6232 49.4779 100.079 52.105 101.018 54.5599L103.581 53.5879L106.145 52.6158C105.463 50.8353 105.109 48.8737 105.109 46.7051H102.366ZM103.581 53.5879L101.048 54.6337C102.032 56.9972 103.381 59.0814 105.104 60.8556L107.076 58.958L109.048 57.0603C107.833 55.8091 106.853 54.3134 106.115 52.5421L103.581 53.5879ZM107.076 58.958L105.137 60.8887C106.923 62.6671 109.01 64.0304 111.376 64.9724L112.394 62.4372L113.413 59.9019C111.726 59.2305 110.268 58.2742 109.016 57.0272L107.076 58.958ZM112.394 62.4372L111.376 64.9724C113.754 65.9194 116.306 66.3778 119.004 66.3778V63.6473V60.9168C116.941 60.9168 115.087 60.5684 113.413 59.9019L112.394 62.4372Z" fill="white" fill-opacity="0.96"/>
</g>
<path d="M50.1889 73.1774V20.233H73.2086C77.9696 20.233 82.0721 21.0146 85.5161 22.5777C88.9601 24.0904 91.6192 26.2838 93.4933 29.1579C95.3674 32.0321 96.3043 35.4607 96.3043 39.4443C96.3043 43.3773 95.3674 46.7808 93.4933 49.655C91.6192 52.4786 88.9601 54.6468 85.5161 56.1595C82.0721 57.6722 77.9696 58.4286 73.2086 58.4286H57.0264L62.4964 53.0585V73.1774H50.1889ZM83.9967 73.1774L70.7015 53.9661H83.8447L97.2919 73.1774H83.9967ZM62.4964 54.4199L57.0264 48.6717H72.5248C76.3235 48.6717 79.1597 47.8648 81.0338 46.2514C82.9078 44.5874 83.8447 42.3184 83.8447 39.4443C83.8447 36.5196 82.9078 34.2506 81.0338 32.6371C79.1597 31.0237 76.3235 30.2168 72.5248 30.2168H57.0264L62.4964 24.3929V54.4199Z" fill="#131933"/>
<mask id="mask1_3_406" style="mask-type:luminance" maskUnits="userSpaceOnUse" x="47" y="17" width="53" height="59">
<path d="M99.5598 17.4752H47.1744V75.9078H99.5598V17.4752Z" fill="white"/>
<path d="M50.1889 73.1774V20.233H73.2086C77.9696 20.233 82.0721 21.0146 85.5161 22.5777C88.9601 24.0904 91.6192 26.2838 93.4933 29.1579C95.3674 32.0321 96.3043 35.4607 96.3043 39.4443C96.3043 43.3773 95.3674 46.7808 93.4933 49.655C91.6192 52.4786 88.9601 54.6468 85.5161 56.1595C82.0721 57.6722 77.9696 58.4286 73.2086 58.4286H57.0264L62.4964 53.0585V73.1774H50.1889ZM83.9967 73.1774L70.7015 53.9661H83.8447L97.2919 73.1774H83.9967ZM62.4964 54.4199L57.0264 48.6717H72.5248C76.3235 48.6717 79.1597 47.8648 81.0338 46.2514C82.9078 44.5874 83.8447 42.3184 83.8447 39.4443C83.8447 36.5196 82.9078 34.2506 81.0338 32.6371C79.1597 31.0237 76.3235 30.2168 72.5248 30.2168H57.0264L62.4964 24.3929V54.4199Z" fill="black"/>
</mask>
<g mask="url(#mask1_3_406)">
<path d="M50.1889 73.1774H47.4462V75.9079H50.1889V73.1774ZM50.1889 20.2331V17.5026H47.4462V20.2331H50.1889ZM85.5162 22.5777L84.3785 25.0622L84.3938 25.0692L84.4092 25.0759L85.5162 22.5777ZM93.4933 49.655L95.7815 51.1603L95.7878 51.151L95.7939 51.1417L93.4933 49.655ZM57.0264 58.4286L55.1008 56.4845L57.0264 61.1591V58.4286ZM62.4964 53.0585H65.2391L60.5708 51.1144L62.4964 53.0585ZM62.4964 73.1774V75.9079H65.2391V73.1774H62.4964ZM83.9967 73.1774L81.7381 74.7267L82.5557 75.9079H83.9967V73.1774ZM70.7015 53.9662V51.2357L68.4429 55.5154L70.7015 53.9662ZM83.8448 53.9662L86.0949 52.4051L85.2764 51.2357H83.8448V53.9662ZM97.2919 73.1774V75.9079L99.542 71.6164L97.2919 73.1774ZM62.4964 54.42L60.5052 56.2977L65.2391 54.42H62.4964ZM57.0264 48.6717V45.9412L55.0352 50.5495L57.0264 48.6717ZM81.0338 46.2514L82.828 48.3168L82.8437 48.3031L82.8593 48.2892L81.0338 46.2514ZM57.0264 30.2168L55.0231 28.3519L57.0264 32.9473V30.2168ZM62.4964 24.393H65.2391L60.4932 22.5281L62.4964 24.393ZM50.1889 73.1774H52.9316V20.2331H50.1889H47.4462V73.1774H50.1889ZM50.1889 20.2331V22.9636H73.2086V20.2331V17.5026H50.1889V20.2331ZM73.2086 20.2331V22.9636C77.6751 22.9636 81.3711 23.6974 84.3785 25.0622L85.5162 22.5777L86.6538 20.0932C82.7729 18.3319 78.2639 17.5026 73.2086 17.5026V20.2331ZM85.5162 22.5777L84.4092 25.0759C87.4127 26.3951 89.6365 28.2577 91.1927 30.6447L93.4933 29.158L95.7939 27.6712C93.6022 24.31 90.5079 21.7858 86.6231 20.0796L85.5162 22.5777ZM93.4933 29.158L91.1927 30.6447C92.7338 33.008 93.5616 35.9009 93.5616 39.4443H96.3043H99.047C99.047 35.0209 98.0009 31.0562 95.7939 27.6712L93.4933 29.158ZM96.3043 39.4443H93.5616C93.5616 42.9295 92.7374 45.7995 91.1927 48.1682L93.4933 49.655L95.7939 51.1417C97.9973 47.7622 99.047 43.8251 99.047 39.4443H96.3043ZM93.4933 49.655L91.2051 48.1497C89.6516 50.4905 87.4254 52.3366 84.4092 53.6614L85.5162 56.1596L86.6231 58.6577C90.495 56.9571 93.5871 54.4669 95.7815 51.1603L93.4933 49.655ZM85.5162 56.1596L84.4092 53.6614C81.3931 54.986 77.6858 55.6981 73.2086 55.6981V58.4286V61.1591C78.2532 61.1591 82.751 60.3585 86.6231 58.6577L85.5162 56.1596ZM73.2086 58.4286V55.6981H57.0264V58.4286V61.1591H73.2086V58.4286ZM57.0264 58.4286L58.9521 60.3727L64.4221 55.0027L62.4964 53.0585L60.5708 51.1144L55.1008 56.4845L57.0264 58.4286ZM62.4964 53.0585H59.7537V73.1774H62.4964H65.2391V53.0585H62.4964ZM62.4964 73.1774V70.4469H50.1889V73.1774V75.9079H62.4964V73.1774ZM83.9967 73.1774L86.2553 71.6281L72.9601 52.4169L70.7015 53.9662L68.4429 55.5154L81.7381 74.7267L83.9967 73.1774ZM70.7015 53.9662V56.6967H83.8448V53.9662V51.2357H70.7015V53.9662ZM83.8448 53.9662L81.5946 55.5272L95.0418 74.7384L97.2919 73.1774L99.542 71.6164L86.0949 52.4051L83.8448 53.9662ZM97.2919 73.1774V70.4469H83.9967V73.1774V75.9079H97.2919V73.1774ZM62.4964 54.42L64.4876 52.5422L59.0176 46.794L57.0264 48.6717L55.0352 50.5495L60.5052 56.2977L62.4964 54.42ZM57.0264 48.6717V51.4022H72.5248V48.6717V45.9412H57.0264V48.6717ZM72.5248 48.6717V51.4022C76.6455 51.4022 80.2491 50.5369 82.828 48.3168L81.0338 46.2514L79.2395 44.1861C78.0706 45.1928 76.0015 45.9412 72.5248 45.9412V48.6717ZM81.0338 46.2514L82.8593 48.2892C85.4067 46.0272 86.5875 42.968 86.5875 39.4443H83.8448H81.1021C81.1021 41.6688 80.4087 43.1477 79.2082 44.2136L81.0338 46.2514ZM83.8448 39.4443H86.5875C86.5875 35.8889 85.4174 32.8015 82.828 30.5718L81.0338 32.6372L79.2395 34.7025C80.3983 35.7 81.1021 37.1507 81.1021 39.4443H83.8448ZM81.0338 32.6372L82.828 30.5718C80.2491 28.3516 76.6455 27.4864 72.5248 27.4864V30.2168V32.9473C76.0015 32.9473 78.0706 33.6958 79.2395 34.7025L81.0338 32.6372ZM72.5248 30.2168V27.4864H57.0264V30.2168V32.9473H72.5248V30.2168ZM57.0264 30.2168L59.0297 32.0818L64.4997 26.2579L62.4964 24.393L60.4932 22.5281L55.0231 28.3519L57.0264 30.2168ZM62.4964 24.393H59.7537V54.42H62.4964H65.2391V24.393H62.4964Z" fill="white" fill-opacity="0.96"/>
</g>
<path d="M6.30573 73.1774V20.233H29.3254C34.0865 20.233 38.189 21.0146 41.633 22.5777C45.077 24.0904 47.7361 26.2838 49.6101 29.1579C51.4842 32.0321 52.4211 35.4607 52.4211 39.4443C52.4211 43.3773 51.4842 46.7808 49.6101 49.655C47.7361 52.5291 45.077 54.7476 41.633 56.3108C38.189 57.8235 34.0865 58.5799 29.3254 58.5799H13.1433L18.6133 53.0585V73.1774H6.30573ZM18.6133 54.4199L13.1433 48.5961H28.6417C32.4403 48.5961 35.2765 47.7892 37.1506 46.1758C39.0247 44.5623 39.9616 42.3184 39.9616 39.4443C39.9616 36.5196 39.0247 34.2506 37.1506 32.6371C35.2765 31.0237 32.4403 30.2168 28.6417 30.2168H13.1433L18.6133 24.3929V54.4199Z" fill="#131933"/>
<mask id="mask2_3_406" style="mask-type:luminance" maskUnits="userSpaceOnUse" x="3" y="17" width="53" height="59">
<path d="M55.4024 17.4752H3.29123V75.9078H55.4024V17.4752Z" fill="white"/>
<path d="M6.30573 73.1774V20.233H29.3254C34.0865 20.233 38.189 21.0146 41.633 22.5777C45.077 24.0904 47.7361 26.2838 49.6101 29.1579C51.4842 32.0321 52.4211 35.4607 52.4211 39.4443C52.4211 43.3773 51.4842 46.7808 49.6101 49.655C47.7361 52.5291 45.077 54.7476 41.633 56.3108C38.189 57.8235 34.0865 58.5799 29.3254 58.5799H13.1433L18.6133 53.0585V73.1774H6.30573ZM18.6133 54.4199L13.1433 48.5961H28.6417C32.4403 48.5961 35.2765 47.7892 37.1506 46.1758C39.0247 44.5623 39.9616 42.3184 39.9616 39.4443C39.9616 36.5196 39.0247 34.2506 37.1506 32.6371C35.2765 31.0237 32.4403 30.2168 28.6417 30.2168H13.1433L18.6133 24.3929V54.4199Z" fill="black"/>
</mask>
<g mask="url(#mask2_3_406)">
<path d="M6.30573 73.1774H3.56303V75.9079H6.30573V73.1774ZM6.30573 20.2331V17.5026H3.56303V20.2331H6.30573ZM41.633 22.5777L40.4953 25.0622L40.5107 25.0692L40.5261 25.0759L41.633 22.5777ZM41.633 56.3108L42.74 58.809L42.7553 58.8021L42.7707 58.7953L41.633 56.3108ZM13.1433 58.5799L11.1906 56.6625L13.1433 61.3104V58.5799ZM18.6133 53.0585H21.356L16.6606 51.1412L18.6133 53.0585ZM18.6133 73.1774V75.9079H21.356V73.1774H18.6133ZM18.6133 54.42L16.61 56.2849L21.356 54.42H18.6133ZM13.1433 48.5961V45.8656L11.1399 50.461L13.1433 48.5961ZM13.1433 30.2168L11.1399 28.3519L13.1433 32.9473V30.2168ZM18.6133 24.393H21.356L16.61 22.5281L18.6133 24.393ZM6.30573 73.1774H9.04843V20.2331H6.30573H3.56303V73.1774H6.30573ZM6.30573 20.2331V22.9636H29.3254V20.2331V17.5026H6.30573V20.2331ZM29.3254 20.2331V22.9636C33.7919 22.9636 37.488 23.6974 40.4953 25.0622L41.633 22.5777L42.7707 20.0932C38.8898 18.3319 34.3808 17.5026 29.3254 17.5026V20.2331ZM41.633 22.5777L40.5261 25.0759C43.5296 26.3951 45.7534 28.2577 47.3096 30.6447L49.6101 29.158L51.9107 27.6712C49.719 24.31 46.6247 21.7858 42.74 20.0796L41.633 22.5777ZM49.6101 29.158L47.3096 30.6447C48.8507 33.008 49.6784 35.9009 49.6784 39.4443H52.4211H55.1638C55.1638 35.0209 54.1178 31.0562 51.9107 27.6712L49.6101 29.158ZM52.4211 39.4443H49.6784C49.6784 42.9295 48.8543 45.7995 47.3096 48.1682L49.6101 49.655L51.9107 51.1417C54.1142 47.7622 55.1638 43.8251 55.1638 39.4443H52.4211ZM49.6101 49.655L47.3096 48.1682C45.7479 50.5634 43.5134 52.4565 40.4953 53.8264L41.633 56.3108L42.7707 58.7953C46.6409 57.0388 49.7242 54.4948 51.9107 51.1417L49.6101 49.655ZM41.633 56.3108L40.5261 53.8127C37.5099 55.1373 33.8026 55.8494 29.3254 55.8494V58.5799V61.3104C34.3701 61.3104 38.8678 60.5098 42.74 58.809L41.633 56.3108ZM29.3254 58.5799V55.8494H13.1433V58.5799V61.3104H29.3254V58.5799ZM13.1433 58.5799L15.096 60.4972L20.566 54.9759L18.6133 53.0585L16.6606 51.1412L11.1906 56.6625L13.1433 58.5799ZM18.6133 53.0585H15.8706V73.1774H18.6133H21.356V53.0585H18.6133ZM18.6133 73.1774V70.4469H6.30573V73.1774V75.9079H18.6133V73.1774ZM18.6133 54.42L20.6166 52.555L15.1466 46.7312L13.1433 48.5961L11.1399 50.461L16.61 56.2849L18.6133 54.42ZM13.1433 48.5961V51.3266H28.6417V48.5961V45.8656H13.1433V48.5961ZM28.6417 48.5961V51.3266C32.7623 51.3266 36.3659 50.4613 38.9449 48.2411L37.1506 46.1758L35.3564 44.1104C34.1874 45.1172 32.1183 45.8656 28.6417 45.8656V48.5961ZM37.1506 46.1758L38.9449 48.2411C41.523 46.021 42.7043 42.9664 42.7043 39.4443H39.9616H37.2189C37.2189 41.6705 36.5261 43.1034 35.3564 44.1104L37.1506 46.1758ZM39.9616 39.4443H42.7043C42.7043 35.8889 41.5343 32.8015 38.9449 30.5718L37.1506 32.6372L35.3564 34.7025C36.5151 35.7 37.2189 37.1507 37.2189 39.4443H39.9616ZM37.1506 32.6372L38.9449 30.5718C36.3659 28.3516 32.7623 27.4864 28.6417 27.4864V30.2168V32.9473C32.1183 32.9473 34.1874 33.6958 35.3564 34.7025L37.1506 32.6372ZM28.6417 30.2168V27.4864H13.1433V30.2168V32.9473H28.6417V30.2168ZM13.1433 30.2168L15.1466 32.0818L20.6166 26.2579L18.6133 24.393L16.61 22.5281L11.1399 28.3519L13.1433 30.2168ZM18.6133 24.393H15.8706V54.42H18.6133H21.356V24.393H18.6133Z" fill="white" fill-opacity="0.96"/>
</g>
<ellipse cx="134.58" cy="47" rx="6.78757" ry="7" fill="white" fill-opacity="0.96"/>
<ellipse cx="154.159" cy="47" rx="6.78757" ry="7" fill="white" fill-opacity="0.96"/>
<rect x="119.699" y="46.1924" width="49.6015" height="1.61538" fill="#474546"/>
<rect x="119.199" y="45.6924" width="50.6015" height="2.61538" stroke="white" stroke-opacity="0.96"/>
<ellipse cx="119.699" cy="47" rx="4.69909" ry="4.84615" fill="#474546"/>
<ellipse cx="154.159" cy="47.0001" rx="4.69909" ry="4.84615" fill="#474546"/>
<ellipse cx="154.029" cy="46.8655" rx="2.74113" ry="2.82692" fill="white" fill-opacity="0.96"/>
<ellipse cx="134.58" cy="47" rx="4.69909" ry="4.84615" fill="#474546"/>
<ellipse cx="134.449" cy="46.8654" rx="2.74113" ry="2.82692" fill="white" fill-opacity="0.96"/>
<ellipse cx="169.301" cy="47.2692" rx="4.69909" ry="4.84615" fill="#474546"/>
</svg>
