<svg width="123" height="68" viewBox="0 0 123 68" fill="none" xmlns="http://www.w3.org/2000/svg">
<g clip-path="url(#clip0_10_124)">
<path d="M91.7842 64.8436C87.2632 64.8436 83.0689 64.1065 79.2016 62.6324C75.3886 61.1583 72.0661 59.0837 69.2336 56.4083C66.4556 53.733 64.2767 50.5938 62.6972 46.9903C61.1719 43.3869 60.4094 39.4559 60.4094 35.1974C60.4094 30.9388 61.1719 27.0078 62.6972 23.4044C64.2767 19.801 66.4827 16.6617 69.3153 13.9864C72.1478 11.3111 75.4703 9.23645 79.2833 7.76233C83.0963 6.28821 87.2358 5.55115 91.7025 5.55115C96.2234 5.55115 100.363 6.28821 104.122 7.76233C107.935 9.23645 111.23 11.3111 114.008 13.9864C116.84 16.6617 119.047 19.801 120.626 23.4044C122.206 26.9532 122.995 30.8841 122.995 35.1974C122.995 39.4559 122.206 43.4141 120.626 47.0722C119.047 50.6757 116.84 53.8149 114.008 56.4902C111.23 59.1109 107.935 61.1583 104.122 62.6324C100.363 64.1065 96.2508 64.8436 91.7842 64.8436ZM91.7025 53.542C94.2625 53.542 96.6048 53.1053 98.7291 52.2317C100.908 51.358 102.814 50.1024 104.448 48.4645C106.083 46.8266 107.335 44.8883 108.207 42.6499C109.133 40.4115 109.596 37.9271 109.596 35.1974C109.596 32.4676 109.133 29.9833 108.207 27.7449C107.335 25.5064 106.083 23.5682 104.448 21.9303C102.869 20.2924 100.99 19.0366 98.8108 18.1631C96.6319 17.2895 94.2625 16.8527 91.7025 16.8527C89.1425 16.8527 86.773 17.2895 84.5941 18.1631C82.4698 19.0366 80.5906 20.2924 78.9565 21.9303C77.3224 23.5682 76.0422 25.5064 75.1163 27.7449C74.2447 29.9833 73.8091 32.4676 73.8091 35.1974C73.8091 37.8727 74.2447 40.3568 75.1163 42.6499C76.0422 44.8883 77.2952 46.8266 78.8748 48.4645C80.5089 50.1024 82.4152 51.358 84.5941 52.2317C86.773 53.1053 89.1425 53.542 91.7025 53.542Z" fill="#585858"/>
<path d="M34.5613 64.8436C30.0403 64.8436 25.846 64.1065 21.9787 62.6324C18.1658 61.1583 14.8431 59.0837 12.0107 56.4083C9.2327 53.733 7.05388 50.5938 5.47426 46.9903C3.94909 43.3869 3.18652 39.4559 3.18652 35.1974C3.18652 30.9388 3.94909 27.0078 5.47426 23.4044C7.05388 19.801 9.25992 16.6617 12.0924 13.9864C14.9248 11.3111 18.2475 9.23645 22.0604 7.76233C25.8733 6.28821 30.0129 5.55115 34.4795 5.55115C39.0005 5.55115 43.1403 6.28821 46.8987 7.76233C50.7117 9.23645 54.0071 11.3111 56.785 13.9864C59.6176 16.6617 61.8236 19.801 63.4031 23.4044C64.9827 26.9532 65.7726 30.8841 65.7726 35.1974C65.7726 39.4559 64.9827 43.4141 63.4031 47.0722C61.8236 50.6757 59.6176 53.8149 56.785 56.4902C54.0071 59.1109 50.7117 61.1583 46.8987 62.6324C43.1403 64.1065 39.0279 64.8436 34.5613 64.8436ZM34.4795 53.542C37.0395 53.542 39.3819 53.1053 41.5062 52.2317C43.6851 51.358 45.5914 50.1024 47.2255 48.4645C48.8596 46.8266 50.1124 44.8883 50.984 42.6499C51.9099 40.4115 52.373 37.9271 52.373 35.1974C52.373 32.4676 51.9099 29.9833 50.984 27.7449C50.1124 25.5064 48.8596 23.5682 47.2255 21.9303C45.646 20.2924 43.7668 19.0366 41.5879 18.1631C39.409 17.2895 37.0395 16.8527 34.4795 16.8527C31.9196 16.8527 29.5501 17.2895 27.3712 18.1631C25.2469 19.0366 23.3677 20.2924 21.7336 21.9303C20.0995 23.5682 18.8194 25.5064 17.8934 27.7449C17.0219 29.9833 16.5861 32.4676 16.5861 35.1974C16.5861 37.8727 17.0219 40.3568 17.8934 42.6499C18.8194 44.8883 20.0722 46.8266 21.6519 48.4645C23.286 50.1024 25.1924 51.358 27.3712 52.2317C29.5501 53.1053 31.9196 53.542 34.4795 53.542Z" fill="#131933"/>
<mask id="mask0_10_124" style="mask-type:luminance" maskUnits="userSpaceOnUse" x="0" y="2" width="69" height="66">
<path d="M68.7266 2.36523H0V68H68.7266V2.36523Z" fill="white"/>
<path d="M34.5613 64.8437C30.0403 64.8437 25.846 64.1066 21.9787 62.6325C18.1658 61.1584 14.8431 59.0838 12.0107 56.4084C9.2327 53.7331 7.05388 50.5938 5.47426 46.9904C3.94909 43.387 3.18652 39.456 3.18652 35.1974C3.18652 30.9389 3.94909 27.0079 5.47426 23.4045C7.05388 19.8011 9.25992 16.6617 12.0924 13.9865C14.9248 11.3112 18.2475 9.23651 22.0604 7.76239C25.8733 6.28827 30.0129 5.55121 34.4795 5.55121C39.0005 5.55121 43.1403 6.28827 46.8987 7.76239C50.7117 9.23651 54.0071 11.3112 56.785 13.9865C59.6176 16.6617 61.8236 19.8011 63.4031 23.4045C64.9827 26.9533 65.7726 30.8842 65.7726 35.1974C65.7726 39.456 64.9827 43.4142 63.4031 47.0723C61.8236 50.6757 59.6176 53.815 56.785 56.4903C54.0071 59.111 50.7117 61.1584 46.8987 62.6325C43.1403 64.1066 39.0279 64.8437 34.5613 64.8437ZM34.4795 53.5421C37.0395 53.5421 39.3819 53.1054 41.5062 52.2317C43.6851 51.3581 45.5914 50.1024 47.2255 48.4645C48.8596 46.8266 50.1124 44.8883 50.984 42.6499C51.9099 40.4116 52.373 37.9272 52.373 35.1974C52.373 32.4677 51.9099 29.9833 50.984 27.7449C50.1124 25.5065 48.8596 23.5683 47.2255 21.9303C45.646 20.2924 43.7668 19.0367 41.5879 18.1631C39.409 17.2896 37.0395 16.8528 34.4795 16.8528C31.9196 16.8528 29.5501 17.2896 27.3712 18.1631C25.2469 19.0367 23.3677 20.2924 21.7336 21.9303C20.0995 23.5683 18.8194 25.5065 17.8934 27.7449C17.0219 29.9833 16.5861 32.4677 16.5861 35.1974C16.5861 37.8728 17.0219 40.3569 17.8934 42.6499C18.8194 44.8883 20.0722 46.8266 21.6519 48.4645C23.286 50.1024 25.1924 51.3581 27.3712 52.2317C29.5501 53.1054 31.9196 53.5421 34.4795 53.5421Z" fill="black"/>
</mask>
<g mask="url(#mask0_10_124)">
<path d="M21.9786 62.6325L20.9171 65.3909L20.9236 65.3936L20.9302 65.3959L21.9786 62.6325ZM12.0106 56.4084L9.967 58.5403L9.97732 58.5504L9.98774 58.5601L12.0106 56.4084ZM5.4742 46.9904L2.75881 48.1449L2.76617 48.1624L2.77375 48.1798L5.4742 46.9904ZM5.4742 23.4044L2.77375 22.2151L2.76617 22.2324L2.75881 22.2498L5.4742 23.4044ZM46.8987 7.76237L45.8238 10.5156L45.8306 10.5182L45.8371 10.5208L46.8987 7.76237ZM56.785 13.9864L54.7415 16.1184L54.7518 16.1283L54.7621 16.1382L56.785 13.9864ZM63.4031 23.4044L60.7027 24.5938L60.7059 24.6014L60.7095 24.609L63.4031 23.4044ZM63.4031 47.0723L66.1035 48.2617L66.1067 48.2543L66.11 48.2466L63.4031 47.0723ZM56.785 56.4903L58.8066 58.6432L58.8078 58.642L56.785 56.4903ZM46.8987 62.6325L45.8371 59.874L45.8306 59.8767L45.8238 59.8793L46.8987 62.6325ZM41.5061 52.2317L40.4106 49.4866L40.3985 49.4916L40.3864 49.4963L41.5061 52.2317ZM50.9839 42.6499L48.2593 41.5176L48.2472 41.5462L48.236 41.5752L50.9839 42.6499ZM50.9839 27.7449L48.236 28.8197L48.2472 28.8486L48.2593 28.8773L50.9839 27.7449ZM47.2255 21.9303L45.1047 23.9852L45.1221 24.0032L45.1398 24.0209L47.2255 21.9303ZM27.3711 18.1631L26.2757 15.418L26.2636 15.4229L26.2516 15.4278L27.3711 18.1631ZM17.8934 27.7449L15.1687 26.6125L15.1568 26.6412L15.1455 26.6701L17.8934 27.7449ZM17.8934 42.6499L15.137 43.7024L15.1522 43.7426L15.1687 43.7823L17.8934 42.6499ZM21.6518 48.4645L19.531 50.5193L19.5484 50.5373L19.5661 50.5551L21.6518 48.4645ZM34.5612 64.8436V61.8871C30.3653 61.8871 26.5298 61.2042 23.0271 59.869L21.9786 62.6325L20.9302 65.3959C25.1622 67.009 29.7152 67.8002 34.5612 67.8002V64.8436ZM21.9786 62.6325L23.0401 59.874C19.5657 58.5309 16.5739 56.6561 14.0335 54.2566L12.0106 56.4084L9.98774 58.5601C13.1122 61.511 16.7657 63.7858 20.9171 65.3909L21.9786 62.6325ZM12.0106 56.4084L14.0542 54.2764C11.5601 51.8746 9.60204 49.0573 8.17465 45.801L5.4742 46.9904L2.77375 48.1798C4.50559 52.1303 6.90519 55.5918 9.967 58.5403L12.0106 56.4084ZM5.4742 46.9904L8.18958 45.8359C6.83215 42.6286 6.1361 39.0944 6.1361 35.1974H3.18646H0.236816C0.236816 39.8176 1.06592 44.1453 2.75881 48.1449L5.4742 46.9904ZM3.18646 35.1974H6.1361C6.1361 31.3004 6.83215 27.7662 8.18958 24.5591L5.4742 23.4044L2.75881 22.2498C1.06592 26.2495 0.236816 30.5773 0.236816 35.1974H3.18646ZM5.4742 23.4044L8.17465 24.5938C9.59659 21.3501 11.5733 18.5389 14.1152 16.1382L12.0923 13.9864L10.0694 11.8347C6.94636 14.7845 4.51108 18.252 2.77375 22.2151L5.4742 23.4044ZM12.0923 13.9864L14.1152 16.1382C16.6556 13.7387 19.6474 11.864 23.1218 10.5208L22.0603 7.76237L20.9988 5.00393C16.8474 6.60891 13.1939 8.88363 10.0694 11.8347L12.0923 13.9864ZM22.0603 7.76237L23.1218 10.5208C26.5659 9.18928 30.342 8.50771 34.4795 8.50771V5.55119V2.59467C29.6837 2.59467 25.1806 3.38722 20.9988 5.00393L22.0603 7.76237ZM34.4795 5.55119V8.50771C38.6768 8.50771 42.4465 9.19102 45.8238 10.5156L46.8987 7.76237L47.9735 5.00914C43.8337 3.38548 39.3243 2.59467 34.4795 2.59467V5.55119ZM46.8987 7.76237L45.8371 10.5208C49.307 11.8623 52.2629 13.7316 54.7415 16.1184L56.785 13.9864L58.8285 11.8545C55.7511 8.89076 52.116 6.61069 47.9602 5.00393L46.8987 7.76237ZM56.785 13.9864L54.7621 16.1382C57.3038 18.5389 59.2807 21.3501 60.7027 24.5938L63.4031 23.4044L66.1035 22.2151C64.3661 18.252 61.9309 14.7845 58.8078 11.8347L56.785 13.9864ZM63.4031 23.4044L60.7095 24.609C62.1026 27.739 62.8229 31.2534 62.8229 35.1974H65.7725H68.7222C68.7222 30.5152 67.8629 26.1675 66.0967 22.1998L63.4031 23.4044ZM65.7725 35.1974H62.8229C62.8229 39.0799 62.1049 42.6354 60.6962 45.898L63.4031 47.0723L66.11 48.2466C67.8606 44.1929 68.7222 39.8321 68.7222 35.1974H65.7725ZM63.4031 47.0723L60.7027 45.8829C59.2807 49.1265 57.3038 51.9378 54.7621 54.3385L56.785 56.4903L58.8078 58.642C61.9309 55.6923 64.3661 52.2249 66.1035 48.2617L63.4031 47.0723ZM56.785 56.4903L54.7633 54.3373C52.2826 56.6774 49.3197 58.5276 45.8371 59.874L46.8987 62.6325L47.9602 65.3909C52.1036 63.7891 55.7314 61.5445 58.8066 58.6432L56.785 56.4903ZM46.8987 62.6325L45.8238 59.8793C42.4426 61.2053 38.6992 61.8871 34.5612 61.8871V64.8436V67.8002C39.3564 67.8002 43.8378 67.0078 47.9735 65.3856L46.8987 62.6325ZM34.4795 53.542V56.4986C37.3796 56.4986 40.1074 56.0025 42.6258 54.9671L41.5061 52.2317L40.3864 49.4963C38.6562 50.208 36.6997 50.5855 34.4795 50.5855V53.542ZM41.5061 52.2317L42.6016 54.9768C45.1454 53.9568 47.3901 52.4806 49.3112 50.5551L47.2255 48.4645L45.1398 46.374C43.7927 47.7242 42.2244 48.7596 40.4106 49.4866L41.5061 52.2317ZM47.2255 48.4645L49.3112 50.5551C51.2444 48.6174 52.7177 46.3296 53.7318 43.7246L50.9839 42.6499L48.236 41.5752C47.5072 43.4473 46.4748 45.0358 45.1398 46.374L47.2255 48.4645ZM50.9839 42.6499L53.7085 43.7823C54.8007 41.1421 55.3225 38.2669 55.3225 35.1974H52.3729H49.4233C49.4233 37.5878 49.0191 39.6807 48.2593 41.5176L50.9839 42.6499ZM52.3729 35.1974H55.3225C55.3225 32.128 54.8007 29.2526 53.7085 26.6125L50.9839 27.7449L48.2593 28.8773C49.0191 30.7141 49.4233 32.8071 49.4233 35.1974H52.3729ZM50.9839 27.7449L53.7318 26.6701C52.7177 24.0653 51.2444 21.7776 49.3112 19.8397L47.2255 21.9303L45.1398 24.0209C46.4748 25.3589 47.5072 26.9475 48.236 28.8197L50.9839 27.7449ZM47.2255 21.9303L49.3463 19.8755C47.4676 17.9277 45.2356 16.4414 42.6833 15.418L41.5878 18.1631L40.4923 20.9082C42.2975 21.6319 43.824 22.6571 45.1047 23.9852L47.2255 21.9303ZM41.5878 18.1631L42.6833 15.418C40.1257 14.3926 37.3805 13.8963 34.4795 13.8963V16.8528V19.8093C36.6985 19.8093 38.6925 20.1865 40.4923 20.9082L41.5878 18.1631ZM34.4795 16.8528V13.8963C31.5785 13.8963 28.8334 14.3926 26.2757 15.418L27.3711 18.1631L28.4666 20.9082C30.2665 20.1865 32.2605 19.8093 34.4795 19.8093V16.8528ZM27.3711 18.1631L26.2516 15.4278C23.7634 16.451 21.5563 17.9267 19.6478 19.8397L21.7335 21.9303L23.8192 24.0209C25.1789 22.6581 26.7302 21.6223 28.4907 20.8984L27.3711 18.1631ZM21.7335 21.9303L19.6478 19.8397C17.7275 21.7645 16.2359 24.0326 15.1687 26.6125L17.8934 27.7449L20.6181 28.8773C21.4028 26.9803 22.4713 25.3719 23.8192 24.0209L21.7335 21.9303ZM17.8934 27.7449L15.1455 26.6701C14.1238 29.2945 13.6364 32.1495 13.6364 35.1974H16.5861H19.5357C19.5357 32.7858 19.9199 30.6722 20.6412 28.8197L17.8934 27.7449ZM16.5861 35.1974H13.6364C13.6364 38.1998 14.1266 41.0442 15.137 43.7024L17.8934 42.6499L20.6498 41.5974C19.9171 39.6695 19.5357 37.5455 19.5357 35.1974H16.5861ZM17.8934 42.6499L15.1687 43.7823C16.2273 46.3414 17.6781 48.5981 19.531 50.5193L21.6518 48.4645L23.7726 46.4097C22.4663 45.055 21.4114 43.4355 20.6181 41.5176L17.8934 42.6499ZM21.6518 48.4645L19.5661 50.5551C21.4871 52.4806 23.7319 53.9568 26.2757 54.9768L27.3711 52.2317L28.4666 49.4866C26.6528 48.7596 25.0847 47.7242 23.7375 46.374L21.6518 48.4645ZM27.3711 52.2317L26.2757 54.9768C28.8334 56.0022 31.5785 56.4986 34.4795 56.4986V53.542V50.5855C32.2605 50.5855 30.2665 50.2083 28.4666 49.4866L27.3711 52.2317Z" fill="white" fill-opacity="0.96"/>
</g>
<path d="M52.2086 42.5739C56.4441 42.5739 59.8777 39.1324 59.8777 34.887C59.8777 30.6416 56.4441 27.2 52.2086 27.2C47.9731 27.2 44.5396 30.6416 44.5396 34.887C44.5396 39.1324 47.9731 42.5739 52.2086 42.5739Z" fill="white" fill-opacity="0.96"/>
<path d="M74.3309 42.5739C78.5664 42.5739 82 39.1324 82 34.887C82 30.6416 78.5664 27.2 74.3309 27.2C70.0954 27.2 66.6619 30.6416 66.6619 34.887C66.6619 39.1324 70.0954 42.5739 74.3309 42.5739Z" fill="white" fill-opacity="0.96"/>
<path d="M91.4389 34H35.3958V35.7739H91.4389V34Z" fill="#393838"/>
<path d="M92.1762 33.2609H34.6582V36.513H92.1762V33.2609Z" stroke="white" stroke-opacity="0.96" stroke-width="2"/>
<path d="M35.3958 40.2087C38.3281 40.2087 40.7051 37.8261 40.7051 34.887C40.7051 31.9478 38.3281 29.5652 35.3958 29.5652C32.4635 29.5652 30.0864 31.9478 30.0864 34.887C30.0864 37.8261 32.4635 40.2087 35.3958 40.2087Z" fill="#393838"/>
<path d="M74.3308 40.2087C77.2631 40.2087 79.6402 37.8261 79.6402 34.887C79.6402 31.9478 77.2631 29.5652 74.3308 29.5652C71.3986 29.5652 69.0215 31.9478 69.0215 34.887C69.0215 37.8261 71.3986 40.2087 74.3308 40.2087Z" fill="#393838"/>
<path d="M74.1835 37.8435C75.894 37.8435 77.2807 36.4536 77.2807 34.7391C77.2807 33.0247 75.894 31.6348 74.1835 31.6348C72.4731 31.6348 71.0864 33.0247 71.0864 34.7391C71.0864 36.4536 72.4731 37.8435 74.1835 37.8435Z" fill="white" fill-opacity="0.96"/>
<path d="M52.2085 40.2087C55.1408 40.2087 57.5179 37.8261 57.5179 34.887C57.5179 31.9478 55.1408 29.5652 52.2085 29.5652C49.2762 29.5652 46.8992 31.9478 46.8992 34.887C46.8992 37.8261 49.2762 40.2087 52.2085 40.2087Z" fill="#393838"/>
<path d="M52.0612 37.8435C53.7717 37.8435 55.1584 36.4536 55.1584 34.7391C55.1584 33.0247 53.7717 31.6348 52.0612 31.6348C50.3507 31.6348 48.9641 33.0247 48.9641 34.7391C48.9641 36.4536 50.3507 37.8435 52.0612 37.8435Z" fill="white" fill-opacity="0.96"/>
<path d="M91.4387 40.5043C94.371 40.5043 96.7481 38.1217 96.7481 35.1826C96.7481 32.2435 94.371 29.8609 91.4387 29.8609C88.5065 29.8609 86.1294 32.2435 86.1294 35.1826C86.1294 38.1217 88.5065 40.5043 91.4387 40.5043Z" fill="#393838"/>
</g>
<defs>
<clipPath id="clip0_10_124">
<rect width="123" height="68" fill="white"/>
</clipPath>
</defs>
</svg>
